/* XPM */
static char *_d004194daf24acfc0fdfc2c769ba911TXy1mJC6mm2qbX7Z[] = {
/* columns rows colors chars-per-pixel */
"64 64 2 1 ",
"  c None",
". c black",
/* pixels */
"                                                                ",
"                                                                ",
"                                                                ",
"                                                                ",
"                                                                ",
"                                                                ",
"                             ......                             ",
"                             ......                             ",
"                            ........                            ",
"                            ........                            ",
"                            ........                            ",
"                             ......                             ",
"                             ......                             ",
"                             ......                             ",
"                             ......                             ",
"                             ......                             ",
"           ..........................................           ",
"          ............................................          ",
"         ..............................................         ",
"        ................................................        ",
"        ................................................        ",
"        ................................................        ",
"        ................................................        ",
"        ................................................        ",
"        ................................................        ",
"        ................................................        ",
"        ................................................        ",
"        .............    ..............    .............        ",
"        ............      ............      ............        ",
"       ............       ............       ............       ",
"      .............        ..........        .............      ",
"     ..............        ..........        ..............     ",
"     ..............        ..........        ..............     ",
"     ..............        ..........        ..............     ",
"     ..............       ............       ..............     ",
"     ...............      ............      ...............     ",
"     ................    ..............    ................     ",
"     ......................................................     ",
"      ....................................................      ",
"      ....................................................      ",
"        ................................................        ",
"        ................................................        ",
"        ................................................        ",
"        .............                      .............        ",
"        .............                      .............        ",
"        .............                      .............        ",
"        .............                      .............        ",
"        .............                      .............        ",
"        ................................................        ",
"        ................................................        ",
"        ................................................        ",
"        ................................................        ",
"        ................................................        ",
"        ................................................        ",
"        ................................................        ",
"        ................................................        ",
"         ..............................................         ",
"          ............................................          ",
"            ........................................            ",
"                                                                ",
"                                                                ",
"                                                                ",
"                                                                ",
"                                                                "
};
