/* XPM */
static char *_02ea0317af744b7e25ad058d3b3475e1YtztFpffoy6wW8T[] = {
/* columns rows colors chars-per-pixel */
"64 64 2 1 ",
"  c None",
". c black",
/* pixels */
"                      ..................................        ",
"                     ...................................        ",
"                    ....................................        ",
"                   .....                             ...        ",
"                  ......                             ...        ",
"                 .......                             ...        ",
"                .... ...                             ...        ",
"               ....  ...                             ...        ",
"              ....   ...                             ...        ",
"              ...    ...                             ...        ",
"             ...     ...                             ...        ",
"            ...      ...                             ...        ",
"           ...       ...                             ...        ",
"          ....       ...                             ...        ",
"         ....        ...                             ...        ",
"        ....         ...                             ...        ",
"        ................                             ...        ",
"        ................                             ...        ",
"        ...............                              ...        ",
"        ...                                          ...        ",
"        ...                                          ...        ",
"        ...                                          ...        ",
"        ...                                          ...        ",
"        ...                                          ...        ",
"        ...                                          ...        ",
"        ...                                          ...        ",
"        ...                                          ...        ",
"        ...                                          ...        ",
"        ...                                          ...        ",
"        ...                                          ...        ",
"        ...                                          ...        ",
"        ...                                          ...        ",
"        ...                                          ...        ",
"        ...                                          ...        ",
"        ...                                          ...        ",
"        ...                                          ...        ",
"        ...                                          ...        ",
"        ...                                          ...        ",
"        ...                                          ...        ",
"        ...                                          ...        ",
"        ...                                          ...        ",
"        ...                                          ...        ",
"        ...                                          ...        ",
"        ...                                          ...        ",
"        ...                                          ...        ",
"        ...                                          ...        ",
"        ...                                          ...        ",
"        ...                                          ...        ",
"        ...                                          ...        ",
"        ...                                          ...        ",
"        ...                                          ...        ",
"        ...                                          ...        ",
"        ...                                          ...        ",
"        ...                                          ...        ",
"        ...                                          ...        ",
"        ...                                          ...        ",
"        ...                                          ...        ",
"        ...                                          ...        ",
"        ...                                          ...        ",
"        ...                                          ...        ",
"        ...                                          ...        ",
"        ................................................        ",
"        ................................................        ",
"        ................................................        "
};
