/* XPM */
static char *_086bba90f134aeda0b2f42dc62d06c1N2946gBgcTWRXjoE[] = {
/* columns rows colors chars-per-pixel */
"64 64 2 1 ",
"  c None",
". c black",
/* pixels */
"                                                                ",
"                                                                ",
"                                                                ",
"                             ......                             ",
"                        ................                        ",
"                     ......................                     ",
"                   ..........................                   ",
"                 ............      ............                 ",
"                ........                ........                ",
"              ........                    ........              ",
"             .......                        .......             ",
"            ......                            ......            ",
"           ......                              ......           ",
"          ......                                ......          ",
"         ......              ......              ......         ",
"         .....             ..........             .....         ",
"        .....            ..............            .....        ",
"       .....            ................            .....       ",
"       ....             ......    ......             ....       ",
"      .....            .....        .....            .....      ",
"      ....             ....          ....             ....      ",
"     .....            .....          .....            .....     ",
"     ....             ....            ....             ....     ",
"     ....             ....            ....             ....     ",
"    ....              ....            ....              ....    ",
"    ....              ....            ....              ....    ",
"    ....              .....          .....              ....    ",
"    ....               ....          ....               ....    ",
"    ....               .....        .....               ....    ",
"   ....                 ......    ......                 ....   ",
"   ....                 ................                 ....   ",
"   ....                  ..............                  ....   ",
"   ....                    ..........                    ....   ",
"   ....                      ......                      ....   ",
"   ....                                                  ....   ",
"    ....                                                ....    ",
"    ....                                                ....    ",
"    ....                                                ....    ",
"    ....                                                ....    ",
"    ....                    ........                    ....    ",
"     ....             ....................             ....     ",
"     ....          ..........................          ....     ",
"     .....       ..............................       .....     ",
"      ....     .............        .............     ....      ",
"      .....  ..........                  ..........  .....      ",
"       .............                        .............       ",
"       ...........                            ...........       ",
"        ........                                ........        ",
"         ......                                  ......         ",
"         ......                                  ......         ",
"          ......                                ......          ",
"           ......                              ......           ",
"            ......                            ......            ",
"             .......                        .......             ",
"              ........                    ........              ",
"                ........                ........                ",
"                 ............      ............                 ",
"                   ..........................                   ",
"                     ......................                     ",
"                        ................                        ",
"                             ......                             ",
"                                                                ",
"                                                                ",
"                                                                "
};
