/* XPM */
static char *_39a82641b82480582979e7d239b0a849ijAtroHnDlO9EEY[] = {
/* columns rows colors chars-per-pixel */
"64 64 2 1 ",
"  c None",
". c black",
/* pixels */
"                                                                ",
"                                                                ",
"                                                                ",
"                                                                ",
"                                                                ",
"                                                                ",
"                                                                ",
"                                                                ",
"                                                                ",
"      ....                                                      ",
"      .......                                                   ",
"      .........                                                 ",
"       ...........                                              ",
"       .............                                            ",
"        ..............                                          ",
"        ....  ...........                                       ",
"        .....    ..........                                     ",
"         ....      ..........                                   ",
"         .....       ...........                                ",
"          ....          ..........                              ",
"          .....           ...........                           ",
"           ....              ..........                         ",
"           ....                ..........                       ",
"            ....                 ...........                    ",
"            ....                    ..........                  ",
"            .....                     ..........                ",
"             ....                       ...........             ",
"             .....                         ..........           ",
"              ....                           ...........        ",
"              .....                             ..........      ",
"               .............................................    ",
"               ..............................................   ",
"               ..............................................   ",
"               .............................................    ",
"              .....                             ..........      ",
"              ....                           ...........        ",
"             .....                         ..........           ",
"             ....                       ...........             ",
"            .....                     ..........                ",
"            ....                    ..........                  ",
"            ....                 ...........                    ",
"           ....                ..........                       ",
"           ....              ..........                         ",
"          .....           ...........                           ",
"          ....          ..........                              ",
"         .....       ...........                                ",
"         ....      ..........                                   ",
"        .....    ..........                                     ",
"        ....  ...........                                       ",
"        ..............                                          ",
"       .............                                            ",
"       ...........                                              ",
"      .........                                                 ",
"      .......                                                   ",
"      ....                                                      ",
"                                                                ",
"                                                                ",
"                                                                ",
"                                                                ",
"                                                                ",
"                                                                ",
"                                                                ",
"                                                                ",
"                                                                "
};
