/* XPM */
static char *e861d1c31d744677a8195afb6cbd5396LtilK9Nw6mS9UJz2[] = {
/* columns rows colors chars-per-pixel */
"64 64 2 1 ",
"  c None",
". c black",
/* pixels */
"                                                                ",
"                                                                ",
"                                                                ",
"                                                                ",
"                                                                ",
"                                                                ",
"                                                                ",
"                                                                ",
"                        .............                           ",
"                        .............                           ",
"                        .............                           ",
"                        ...        ...                          ",
"                        ...        ...                          ",
"                        ...        ...                          ",
"                       ...         ...                          ",
"            .         ....         .....        .               ",
"           ....     ......         ......     ....              ",
"           ...... ......              ..... .......             ",
"          ............                  ...........             ",
"         ...   .....                     ......  ...            ",
"         ...     ..                       ..     ....           ",
"        ...                                       ...           ",
"        ...                                        ...          ",
"       ...                                         ...          ",
"       ...                  ......                  ...         ",
"      ...                 ..........                ...         ",
"      .....             .............              ....         ",
"       .....           ....       ....           .....          ",
"         .....         ...         ....         .....           ",
"          ....        ...           ...         ...             ",
"           ...        ...            ...        ..              ",
"           ..         ..             ...        ...             ",
"           ..        ...             ...        ...             ",
"           ..        ...             ...        ...             ",
"           ..        ...             ...        ...             ",
"           ..         ..             ...        ...             ",
"           ...        ...            ..         ...             ",
"         .....        ...           ...        .....            ",
"        .....          ...         ...          .....           ",
"       .....            ....     .....            .....         ",
"      ....               ............              ....         ",
"      ...                 .........                 ...         ",
"       ...                   ...                    ...         ",
"       ...                                         ...          ",
"        ...                                       ...           ",
"        ....                                      ...           ",
"         ...    ...                       ...    ...            ",
"          ... .......                    ......  ...            ",
"          ............                 ............             ",
"           ......  ......            .....   ......             ",
"           ...      ......         ......      ...              ",
"                      ....         ....                         ",
"                        ..         ...                          ",
"                        ...        ...                          ",
"                        ...        ...                          ",
"                        ...        ..                           ",
"                        .............                           ",
"                        .............                           ",
"                         ............                           ",
"                                                                ",
"                                                                ",
"                                                                ",
"                                                                ",
"                                                                "
};
